<svg xmlns="http://www.w3.org/2000/svg" viewBox="0 0 192 192">
  <rect width="192" height="192" fill="#0d0d1a"/>
  <ellipse cx="96" cy="54" rx="10" ry="20" fill="#ec4899" opacity="0.9" transform="rotate(0 96 96)"/>
  <ellipse cx="96" cy="54" rx="10" ry="20" fill="#8b5cf6" opacity="0.85" transform="rotate(45 96 96)"/>
  <ellipse cx="96" cy="54" rx="10" ry="20" fill="#ec4899" opacity="0.9" transform="rotate(90 96 96)"/>
  <ellipse cx="96" cy="54" rx="10" ry="20" fill="#8b5cf6" opacity="0.85" transform="rotate(135 96 96)"/>
  <ellipse cx="96" cy="54" rx="10" ry="20" fill="#ec4899" opacity="0.9" transform="rotate(180 96 96)"/>
  <ellipse cx="96" cy="54" rx="10" ry="20" fill="#8b5cf6" opacity="0.85" transform="rotate(225 96 96)"/>
  <ellipse cx="96" cy="54" rx="10" ry="20" fill="#ec4899" opacity="0.9" transform="rotate(270 96 96)"/>
  <ellipse cx="96" cy="54" rx="10" ry="20" fill="#8b5cf6" opacity="0.85" transform="rotate(315 96 96)"/>
  <circle cx="96" cy="96" r="18" fill="#f59e0b"/>
  <circle cx="96" cy="96" r="11" fill="#0d0d1a"/>
  <text x="96" y="101" font-size="14" font-weight="700" text-anchor="middle" font-family="system-ui,sans-serif" fill="#f59e0b">P</text>
</svg>
