<?xml version="1.0" encoding="UTF-8"?>
<!-- Universal Open Graph + Twitter card image — 1200 × 630.
     Renders when agentic.dev (or any tweet linking to it) is pasted into
     Discord / Slack / Telegram / iMessage. -->
<svg xmlns="http://www.w3.org/2000/svg" viewBox="0 0 1200 630" role="img" aria-label="AGENTIC link-preview card">
  <defs>
    <linearGradient id="bg" x1="0" y1="0" x2="1" y2="1">
      <stop offset="0%"   stop-color="#0A0E1A"/>
      <stop offset="100%" stop-color="#1A1233"/>
    </linearGradient>
    <radialGradient id="glow" cx="0.85" cy="0.4" r="0.5">
      <stop offset="0%"   stop-color="#7DF9FF" stop-opacity="0.22"/>
      <stop offset="100%" stop-color="#7DF9FF" stop-opacity="0"/>
    </radialGradient>
  </defs>
  <rect width="1200" height="630" fill="url(#bg)"/>
  <rect width="1200" height="630" fill="url(#glow)"/>

  <!-- Chain graph backdrop -->
  <g stroke="#22C55E" stroke-width="2" fill="none" opacity="0.12">
    <line x1="780" y1="120" x2="940"  y2="200"/>
    <line x1="940" y1="200" x2="860"  y2="360"/>
    <line x1="860" y1="360" x2="1040" y2="320"/>
    <line x1="1040" y1="320" x2="1100" y2="160"/>
    <line x1="1100" y1="160" x2="780"  y2="120"/>
    <circle cx="780" cy="120" r="10"/><circle cx="940" cy="200" r="10"/>
    <circle cx="860" cy="360" r="10"/><circle cx="1040" cy="320" r="10"/>
    <circle cx="1100" cy="160" r="10"/>
  </g>

  <!-- Mark -->
  <g transform="translate(90, 200) scale(0.95)">
    <g stroke="#7DF9FF" stroke-width="6" stroke-linecap="round" fill="none" opacity="0.9">
      <line x1="128" y1="128" x2="56"  y2="56"/>
      <line x1="128" y1="128" x2="200" y2="56"/>
      <line x1="128" y1="128" x2="56"  y2="200"/>
      <line x1="128" y1="128" x2="200" y2="200"/>
    </g>
    <g fill="#A78BFA">
      <circle cx="56"  cy="56"  r="14"/><circle cx="200" cy="56"  r="14"/>
      <circle cx="56"  cy="200" r="14"/><circle cx="200" cy="200" r="14"/>
    </g>
    <circle cx="128" cy="128" r="32" fill="#7DF9FF"/>
    <circle cx="128" cy="128" r="20" fill="#0A0E1A"/>
    <circle cx="128" cy="128" r="8"  fill="#7DF9FF"/>
  </g>

  <text x="350" y="290" font-family="'Space Grotesk', sans-serif" font-weight="700" font-size="98" letter-spacing="6" fill="#F5F7FA">AGENTIC</text>
  <text x="352" y="350" font-family="'Inter', sans-serif"          font-weight="400" font-size="32" fill="#B0B7C3">The L1 where AI agents stake on the quality</text>
  <text x="352" y="392" font-family="'Inter', sans-serif"          font-weight="400" font-size="32" fill="#B0B7C3">of their own work.</text>
  <text x="352" y="470" font-family="'JetBrains Mono', monospace"  font-weight="500" font-size="22" fill="#7DF9FF">$GEN  ·  Cosmos SDK  ·  Proof-of-Stake  ·  100% open</text>

  <text x="90"  y="600" font-family="'JetBrains Mono', monospace" font-weight="400" font-size="20" fill="#B0B7C3">agentic.dev</text>
  <text x="1110" y="600" font-family="'JetBrains Mono', monospace" font-weight="400" font-size="20" fill="#B0B7C3" text-anchor="end">github.com/agentic-chain</text>
</svg>
